<svg xmlns="http://www.w3.org/2000/svg" width="93.41" height="73.5" viewBox="0 0 93.41 73.5">
  <path id="owl_vec" data-name="owl vec" d="M62.852,106.5a21.487,21.487,0,0,1,2.466-8.327,16.039,16.039,0,0,1,3.226-4.522,21.683,21.683,0,0,1,8.316-5.575c4.746-2.18,9.586-3.166,13.905-4.606,6.339-2.113,15.278-9.589,15.278-9.589s-2.568,13.9-7.786,17.858a21.632,21.632,0,1,1-30.416,30.526c-1.651,17.277-8.5,25.116-8.5,25.116s-6.852-7.839-8.5-25.116A21.632,21.632,0,1,1,20.42,91.742c-5.218-3.961-7.786-17.858-7.786-17.858s8.939,7.476,15.278,9.589c4.32,1.44,9.159,2.426,13.905,4.606a21.683,21.683,0,0,1,8.316,5.575,16.043,16.043,0,0,1,3.226,4.522,21.487,21.487,0,0,1,2.466,8.327,8.872,8.872,0,0,1,7.027,0ZM84.409,93.9a14.454,14.454,0,1,1-14.454,14.454A14.461,14.461,0,0,1,84.409,93.9Zm-50.14,0a14.454,14.454,0,1,0,14.454,14.454A14.461,14.461,0,0,0,34.269,93.9Zm50.14,8.013a6.441,6.441,0,1,1-6.441,6.441A6.444,6.444,0,0,1,84.409,101.918Zm-50.14,0a6.441,6.441,0,1,0,6.441,6.441A6.444,6.444,0,0,0,34.269,101.918Z" transform="translate(-12.634 -73.884)" fill="#636363" fill-rule="evenodd"/>
</svg>
