<?xml version="1.0" encoding="UTF-8" standalone="no"?>
<!DOCTYPE svg PUBLIC "-//W3C//DTD SVG 1.1//EN" "http://www.w3.org/Graphics/SVG/1.1/DTD/svg11.dtd">
<svg width="100%" height="100%" viewBox="0 0 600 600" version="1.1" xmlns="http://www.w3.org/2000/svg" xmlns:xlink="http://www.w3.org/1999/xlink" xml:space="preserve" xmlns:serif="http://www.serif.com/" style="fill-rule:evenodd;clip-rule:evenodd;stroke-linejoin:round;stroke-miterlimit:2;">
    <g transform="matrix(-0.889001,1.08871e-16,-1.27849e-16,-1.04396,509.804,849.247)">
        <path d="M236,300C236,300 172,362.347 172,501.5C172,531.579 200.677,556 236,556C271.323,556 300,531.579 300,501.5C300,362.347 236,300 236,300Z"/>
    </g>
    <g transform="matrix(0.85783,0,0,0.85783,200.251,27.1777)">
        <g transform="matrix(1.12892,0,0,1.12892,-132.328,-77.7526)">
            <path d="M386.5,192C465.7,192 530,256.3 530,335.5C530,414.7 465.7,479 386.5,479C307.3,479 243,414.7 243,335.5C243,256.3 307.3,192 386.5,192ZM386.5,239.632C439.411,239.632 482.368,282.589 482.368,335.5C482.368,388.411 439.411,431.368 386.5,431.368C333.589,431.368 290.632,388.411 290.632,335.5C290.632,282.589 333.589,239.632 386.5,239.632Z"/>
        </g>
        <g transform="matrix(0.886092,0,0,0.886092,37.7924,28.5897)">
            <circle cx="300.429" cy="307.429" r="54.429"/>
        </g>
        <g transform="matrix(1.21698,0,0,1.21698,-237.558,-19.2079)">
            <path d="M315.748,281C315.748,281 304.931,212 349.116,171C392.2,131.021 442.143,123.991 484.116,110C523.116,97 578.116,51 578.116,51C578.116,51 561.301,142 527.116,163C516.086,169.776 496.226,184.829 480.384,179C462.006,172.238 429.884,171.167 410.384,179C390.884,186.833 370.375,209 363.384,226C354.697,247.123 322.235,271.662 315.748,281Z"/>
        </g>
    </g>
    <g transform="matrix(-0.85783,0,0,0.85783,399.749,27.1777)">
        <g transform="matrix(1.12892,0,0,1.12892,-132.328,-77.7526)">
            <path d="M386.5,192C465.7,192 530,256.3 530,335.5C530,414.7 465.7,479 386.5,479C307.3,479 243,414.7 243,335.5C243,256.3 307.3,192 386.5,192ZM386.5,239.632C439.411,239.632 482.368,282.589 482.368,335.5C482.368,388.411 439.411,431.368 386.5,431.368C333.589,431.368 290.632,388.411 290.632,335.5C290.632,282.589 333.589,239.632 386.5,239.632Z"/>
        </g>
        <g transform="matrix(0.886092,0,0,0.886092,37.7924,28.5897)">
            <circle cx="300.429" cy="307.429" r="54.429"/>
        </g>
        <g transform="matrix(1.21698,0,0,1.21698,-237.558,-19.2079)">
            <path d="M315.748,281C315.748,281 304.931,212 349.116,171C392.2,131.021 442.143,123.991 484.116,110C523.116,97 578.116,51 578.116,51C578.116,51 561.301,142 527.116,163C516.086,169.776 496.226,184.829 480.384,179C462.006,172.238 429.884,171.167 410.384,179C390.884,186.833 370.375,209 363.384,226C354.697,247.123 322.235,271.662 315.748,281Z"/>
        </g>
    </g>
</svg>
